<svg width="51" height="50" viewBox="0 0 51 50" fill="none" xmlns="http://www.w3.org/2000/svg">
<path fill-rule="evenodd" clip-rule="evenodd" d="M0.977539 15.4084C0.977539 7.00507 7.78975 0.192871 16.193 0.192871L35.2124 0.192871C43.6157 0.192871 50.4279 7.00508 50.4279 15.4084V34.4278C50.4279 42.8311 43.6157 49.6433 35.2124 49.6433H16.193C7.78974 49.6433 0.977539 42.8311 0.977539 34.4278L0.977539 15.4084ZM33.1912 24.2099C33.16 20.7204 35.9724 19.0023 36.2295 18.8452L36.2437 18.8365C34.5831 16.4071 31.9988 16.0743 31.0768 16.0351C29.7325 15.899 28.4274 16.4134 27.3615 16.8335C26.6846 17.1003 26.1042 17.329 25.6715 17.329C25.1891 17.329 24.5928 17.0926 23.9236 16.8273C23.047 16.4797 22.0455 16.0825 21.0119 16.1027C18.6126 16.1383 16.4039 17.4963 15.1687 19.6428C12.6787 23.9625 14.5333 30.3645 16.9574 33.8708C18.1445 35.5848 19.5577 37.5159 21.4159 37.4447C22.2472 37.4116 22.8384 37.1599 23.4495 36.8996C24.1545 36.5994 24.886 36.2878 26.0434 36.2878C27.1487 36.2878 27.8479 36.5905 28.5205 36.8818C29.1627 37.1598 29.7807 37.4274 30.7048 37.4109C32.6288 37.3735 33.8498 35.6595 35.028 33.9402C36.3404 32.0197 36.9101 30.1589 36.977 29.9403L36.9823 29.9231L36.9787 29.9217C36.8422 29.8673 33.2299 28.4268 33.1912 24.2099ZM31.1064 9.20497C31.2897 10.8602 30.624 12.5208 29.638 13.715C28.6518 14.9075 27.034 15.8367 25.4499 15.7139C25.2329 14.0924 26.0338 12.4016 26.9468 11.3461C27.9667 10.1519 29.6859 9.26199 31.1064 9.20497Z" fill="#0D0D0D"/>
</svg>
