<svg width="50" height="50" viewBox="0 0 50 50" fill="none" xmlns="http://www.w3.org/2000/svg">
<path fill-rule="evenodd" clip-rule="evenodd" d="M15.2155 0.192871C6.81221 0.192871 0 7.00507 0 15.4084L0 34.4278C0 42.8311 6.8122 49.6433 15.2155 49.6433H34.2349C42.6382 49.6433 49.4504 42.8311 49.4504 34.4278V15.4084C49.4504 7.00508 42.6382 0.192871 34.2349 0.192871L15.2155 0.192871ZM30.6656 21.696L29.9338 26.4669H26.0881V38.0001C25.2478 38.132 24.3866 38.2006 23.5093 38.2006C22.6319 38.2006 21.7707 38.132 20.9304 38.0001V26.4669H16.7398V21.696H20.9304L20.9304 18.0599C20.9304 13.9234 23.3944 11.6386 27.1645 11.6386C28.9702 11.6386 30.859 11.9609 30.859 11.9609V16.0226H28.7778C26.7275 16.0226 26.0881 17.2948 26.0881 18.6L26.0881 21.696H30.6656Z" fill="#0057FF"/>
</svg>
