<svg width="51" height="50" viewBox="0 0 51 50" fill="none" xmlns="http://www.w3.org/2000/svg">
<path d="M0.977539 15.4084C0.977539 7.00507 7.78975 0.192871 16.193 0.192871L35.2124 0.192871C43.6157 0.192871 50.4279 7.00508 50.4279 15.4084V34.4278C50.4279 42.8311 43.6157 49.6433 35.2124 49.6433H16.193C7.78974 49.6433 0.977539 42.8311 0.977539 34.4278L0.977539 15.4084Z" fill="#E7E7E7"/>
<g clip-path="url(#clip0)">
<path d="M41.9617 25.0203C41.9617 23.5864 41.8494 22.54 41.6064 21.4548H25.8062V27.9269H35.0806C34.8937 29.5353 33.8839 31.9575 31.6401 33.5851L31.6086 33.8018L36.6044 37.8125L36.9505 37.8483C40.1292 34.806 41.9617 30.3297 41.9617 25.0203Z" fill="#4285F4"/>
<path d="M25.8062 42.0727C30.3498 42.0727 34.1643 40.5224 36.9505 37.8484L31.6401 33.5852C30.219 34.6122 28.3117 35.3292 25.8062 35.3292C21.3559 35.3292 17.5788 32.287 16.2324 28.082L16.0351 28.0994L10.8404 32.2656L10.7725 32.4613C13.5398 38.1583 19.2242 42.0727 25.8062 42.0727Z" fill="#34A853"/>
<path d="M16.2325 28.0819C15.8772 26.9968 15.6716 25.8341 15.6716 24.6327C15.6716 23.4312 15.8772 22.2686 16.2138 21.1835L16.2044 20.9524L10.9446 16.7192L10.7726 16.8041C9.632 19.1682 8.97754 21.823 8.97754 24.6327C8.97754 27.4425 9.632 30.0971 10.7726 32.4612L16.2325 28.0819Z" fill="#FBBC05"/>
<path d="M25.8062 13.9362C28.9662 13.9362 31.0978 15.3508 32.3132 16.5329L37.0626 11.7272C34.1457 8.91749 30.3498 7.19287 25.8062 7.19287C19.2242 7.19287 13.5398 11.1071 10.7725 16.8041L16.2137 21.1835C17.5788 16.9786 21.3559 13.9362 25.8062 13.9362Z" fill="#EB4335"/>
</g>
<defs>
<clipPath id="clip0">
<rect width="33" height="35" fill="white" transform="translate(8.97754 7.19287)"/>
</clipPath>
</defs>
</svg>
