<svg width="24" height="24" viewBox="0 0 24 24" fill="none" xmlns="http://www.w3.org/2000/svg">
<path d="M23.3553 10.4388C23.3548 10.4383 23.3542 10.4377 23.3537 10.4372L13.5626 0.647461C13.1452 0.22998 12.5904 0 12.0001 0C11.4099 0 10.8551 0.229797 10.4376 0.647278L0.65158 10.4321C0.648284 10.4354 0.644988 10.4388 0.641692 10.4421C-0.215329 11.304 -0.213864 12.7024 0.645904 13.5621C1.0387 13.955 1.5575 14.1826 2.11218 14.2064C2.1347 14.2086 2.15741 14.2097 2.1803 14.2097C2.39582 14.2097 2.57054 14.3844 2.57054 14.6V21.4144C2.57054 22.84 3.73063 24 5.1568 24H8.98739C9.37561 24 9.69059 23.6852 9.69059 23.2969V17.6484C9.69059 16.9979 10.2198 16.4687 10.8705 16.4687H13.1298C13.7805 16.4687 14.3097 16.9979 14.3097 17.6484V23.2969C14.3097 23.6852 14.6245 24 15.0129 24H18.8435C20.2697 24 21.4298 22.84 21.4298 21.4144V14.5716C21.4298 14.3717 21.5918 14.2097 21.7916 14.2097C22.3816 14.2097 22.9365 13.9799 23.3542 13.5624C24.2149 12.7013 24.2153 11.3005 23.3553 10.4388Z" fill="url(#paint0_linear)"/>
<path d="M23.3553 10.4388C23.3548 10.4383 23.3542 10.4377 23.3537 10.4372L13.5626 0.647461C13.1452 0.22998 12.5904 0 12.0001 0C11.4099 0 10.8551 0.229797 10.4376 0.647278L0.65158 10.4321C0.648284 10.4354 0.644988 10.4388 0.641692 10.4421C-0.215329 11.304 -0.213864 12.7024 0.645904 13.5621C1.0387 13.955 1.5575 14.1826 2.11218 14.2064C2.1347 14.2086 2.15741 14.2097 2.1803 14.2097C2.39582 14.2097 2.57054 14.3844 2.57054 14.6V21.4144C2.57054 22.84 3.73063 24 5.1568 24H8.98739C9.37561 24 9.69059 23.6852 9.69059 23.2969V17.6484C9.69059 16.9979 10.2198 16.4687 10.8705 16.4687H13.1298C13.7805 16.4687 14.3097 16.9979 14.3097 17.6484V23.2969C14.3097 23.6852 14.6245 24 15.0129 24H18.8435C20.2697 24 21.4298 22.84 21.4298 21.4144V14.5716C21.4298 14.3717 21.5918 14.2097 21.7916 14.2097C22.3816 14.2097 22.9365 13.9799 23.3542 13.5624C24.2149 12.7013 24.2153 11.3005 23.3553 10.4388Z" fill="url(#paint1_linear)"/>
<path d="M23.3553 10.4388C23.3548 10.4383 23.3542 10.4377 23.3537 10.4372L13.5626 0.647461C13.1452 0.22998 12.5904 0 12.0001 0C11.4099 0 10.8551 0.229797 10.4376 0.647278L0.65158 10.4321C0.648284 10.4354 0.644988 10.4388 0.641692 10.4421C-0.215329 11.304 -0.213864 12.7024 0.645904 13.5621C1.0387 13.955 1.5575 14.1826 2.11218 14.2064C2.1347 14.2086 2.15741 14.2097 2.1803 14.2097C2.39582 14.2097 2.57054 14.3844 2.57054 14.6V21.4144C2.57054 22.84 3.73063 24 5.1568 24H8.98739C9.37561 24 9.69059 23.6852 9.69059 23.2969V17.6484C9.69059 16.9979 10.2198 16.4687 10.8705 16.4687H13.1298C13.7805 16.4687 14.3097 16.9979 14.3097 17.6484V23.2969C14.3097 23.6852 14.6245 24 15.0129 24H18.8435C20.2697 24 21.4298 22.84 21.4298 21.4144V14.5716C21.4298 14.3717 21.5918 14.2097 21.7916 14.2097C22.3816 14.2097 22.9365 13.9799 23.3542 13.5624C24.2149 12.7013 24.2153 11.3005 23.3553 10.4388Z" fill="url(#paint2_linear)"/>
<path d="M23.3553 10.4388C23.3548 10.4383 23.3542 10.4377 23.3537 10.4372L13.5626 0.647461C13.1452 0.22998 12.5904 0 12.0001 0C11.4099 0 10.8551 0.229797 10.4376 0.647278L0.65158 10.4321C0.648284 10.4354 0.644988 10.4388 0.641692 10.4421C-0.215329 11.304 -0.213864 12.7024 0.645904 13.5621C1.0387 13.955 1.5575 14.1826 2.11218 14.2064C2.1347 14.2086 2.15741 14.2097 2.1803 14.2097C2.39582 14.2097 2.57054 14.3844 2.57054 14.6V21.4144C2.57054 22.84 3.73063 24 5.1568 24H8.98739C9.37561 24 9.69059 23.6852 9.69059 23.2969V17.6484C9.69059 16.9979 10.2198 16.4687 10.8705 16.4687H13.1298C13.7805 16.4687 14.3097 16.9979 14.3097 17.6484V23.2969C14.3097 23.6852 14.6245 24 15.0129 24H18.8435C20.2697 24 21.4298 22.84 21.4298 21.4144V14.5716C21.4298 14.3717 21.5918 14.2097 21.7916 14.2097C22.3816 14.2097 22.9365 13.9799 23.3542 13.5624C24.2149 12.7013 24.2153 11.3005 23.3553 10.4388Z" fill="url(#paint3_linear)"/>
<defs>
<linearGradient id="paint0_linear" x1="11.0826" y1="-11.9967" x2="27.7904" y2="-9.16199" gradientUnits="userSpaceOnUse">
<stop stop-color="#962FBF" stop-opacity="0.98"/>
<stop offset="1" stop-color="#D62976"/>
</linearGradient>
<linearGradient id="paint1_linear" x1="12.0347" y1="26.6592" x2="19.388" y2="25.0578" gradientUnits="userSpaceOnUse">
<stop stop-color="#FA7E1E" stop-opacity="0.7"/>
<stop offset="1" stop-color="#FEDA75" stop-opacity="0.21"/>
</linearGradient>
<linearGradient id="paint2_linear" x1="10.0924" y1="-4.83199" x2="14.9085" y2="14.3537" gradientUnits="userSpaceOnUse">
<stop stop-color="#962FBF"/>
<stop offset="1" stop-color="#962FBF" stop-opacity="0"/>
</linearGradient>
<linearGradient id="paint3_linear" x1="17.5189" y1="23.9933" x2="3.43049" y2="14.273" gradientUnits="userSpaceOnUse">
<stop stop-color="#D62976"/>
<stop offset="1" stop-color="#D62976" stop-opacity="0"/>
</linearGradient>
</defs>
</svg>
